<?xml version="1.0" encoding="UTF-8"?>
<svg xmlns="http://www.w3.org/2000/svg" xmlns:xlink="http://www.w3.org/1999/xlink" width="3840" height="2160" viewBox="0 0 3840 2160">
<defs>
<g>
<g id="glyph-0-0">
<path d="M 0.339844 -1.0625 C 0.429688 -0.824219 0.535156 -0.636719 0.65625 -0.496094 C 0.863281 -0.25 1.125 -0.125 1.433594 -0.125 C 1.601562 -0.125 1.75 -0.179688 1.871094 -0.285156 C 1.996094 -0.390625 2.054688 -0.542969 2.054688 -0.730469 C 2.054688 -0.902344 1.996094 -1.054688 1.871094 -1.179688 C 1.789062 -1.261719 1.621094 -1.382812 1.359375 -1.542969 L 0.910156 -1.824219 C 0.773438 -1.910156 0.664062 -1.996094 0.585938 -2.085938 C 0.4375 -2.25 0.359375 -2.433594 0.359375 -2.636719 C 0.359375 -2.902344 0.449219 -3.125 0.625 -3.300781 C 0.800781 -3.476562 1.039062 -3.566406 1.328125 -3.566406 C 1.449219 -3.566406 1.59375 -3.535156 1.765625 -3.476562 C 1.933594 -3.417969 2.03125 -3.386719 2.054688 -3.386719 C 2.121094 -3.386719 2.164062 -3.402344 2.1875 -3.433594 C 2.214844 -3.464844 2.234375 -3.507812 2.246094 -3.566406 L 2.355469 -3.566406 L 2.472656 -2.441406 L 2.34375 -2.441406 C 2.257812 -2.78125 2.121094 -3.015625 1.929688 -3.152344 C 1.742188 -3.285156 1.554688 -3.351562 1.367188 -3.351562 C 1.222656 -3.351562 1.097656 -3.308594 0.992188 -3.226562 C 0.882812 -3.140625 0.828125 -3.023438 0.828125 -2.871094 C 0.828125 -2.734375 0.871094 -2.617188 0.953125 -2.523438 C 1.035156 -2.425781 1.164062 -2.324219 1.335938 -2.214844 L 1.800781 -1.929688 C 2.089844 -1.75 2.296875 -1.585938 2.414062 -1.4375 C 2.53125 -1.285156 2.589844 -1.109375 2.589844 -0.902344 C 2.589844 -0.625 2.484375 -0.394531 2.277344 -0.207031 C 2.066406 -0.0234375 1.800781 0.0703125 1.476562 0.0703125 C 1.3125 0.0703125 1.144531 0.0390625 0.964844 -0.0234375 C 0.789062 -0.0859375 0.683594 -0.117188 0.660156 -0.117188 C 0.597656 -0.117188 0.554688 -0.0976562 0.535156 -0.0585938 C 0.511719 -0.0195312 0.5 0.0195312 0.492188 0.0625 L 0.375 0.0625 L 0.21875 -1.0625 Z "/>
</g>
<g id="glyph-0-1">
<path d="M 1.3125 -2.429688 C 1.527344 -2.429688 1.710938 -2.375 1.867188 -2.265625 C 2.023438 -2.152344 2.101562 -2.03125 2.101562 -1.898438 C 2.101562 -1.84375 2.082031 -1.789062 2.039062 -1.742188 C 2 -1.691406 1.941406 -1.667969 1.859375 -1.667969 C 1.796875 -1.667969 1.746094 -1.6875 1.699219 -1.730469 C 1.652344 -1.769531 1.621094 -1.832031 1.601562 -1.910156 L 1.570312 -2.03125 C 1.546875 -2.125 1.507812 -2.1875 1.453125 -2.226562 C 1.398438 -2.261719 1.320312 -2.28125 1.230469 -2.28125 C 1.035156 -2.28125 0.867188 -2.195312 0.734375 -2.023438 C 0.597656 -1.851562 0.53125 -1.625 0.53125 -1.34375 C 0.53125 -1.082031 0.605469 -0.851562 0.753906 -0.644531 C 0.902344 -0.4375 1.101562 -0.335938 1.355469 -0.335938 C 1.535156 -0.335938 1.691406 -0.394531 1.832031 -0.511719 C 1.910156 -0.578125 2 -0.683594 2.101562 -0.828125 L 2.171875 -0.785156 C 2.074219 -0.578125 1.972656 -0.417969 1.863281 -0.296875 C 1.65625 -0.0664062 1.414062 0.0507812 1.140625 0.0507812 C 0.875 0.0507812 0.636719 -0.0585938 0.429688 -0.269531 C 0.222656 -0.480469 0.121094 -0.765625 0.121094 -1.128906 C 0.121094 -1.484375 0.234375 -1.789062 0.457031 -2.046875 C 0.683594 -2.300781 0.96875 -2.429688 1.3125 -2.429688 Z "/>
</g>
<g id="glyph-0-2">
<path d="M 0.132812 -1.195312 C 0.132812 -1.539062 0.242188 -1.828125 0.460938 -2.0625 C 0.675781 -2.300781 0.957031 -2.417969 1.296875 -2.417969 C 1.636719 -2.417969 1.921875 -2.304688 2.144531 -2.082031 C 2.367188 -1.859375 2.480469 -1.5625 2.480469 -1.191406 C 2.480469 -0.847656 2.371094 -0.550781 2.152344 -0.300781 C 1.9375 -0.046875 1.65625 0.078125 1.3125 0.078125 C 0.984375 0.078125 0.707031 -0.0429688 0.476562 -0.285156 C 0.25 -0.527344 0.132812 -0.828125 0.132812 -1.195312 Z M 1.226562 -2.261719 C 1.089844 -2.261719 0.972656 -2.21875 0.875 -2.128906 C 0.703125 -1.972656 0.617188 -1.703125 0.617188 -1.320312 C 0.617188 -1.015625 0.683594 -0.726562 0.824219 -0.464844 C 0.960938 -0.199219 1.152344 -0.0664062 1.398438 -0.0664062 C 1.589844 -0.0664062 1.738281 -0.15625 1.84375 -0.332031 C 1.949219 -0.507812 2 -0.742188 2 -1.027344 C 2 -1.324219 1.933594 -1.605469 1.800781 -1.867188 C 1.667969 -2.128906 1.476562 -2.261719 1.226562 -2.261719 Z "/>
</g>
<g id="glyph-0-3">
<path d="M 0.0234375 -0.0859375 C 0.179688 -0.0976562 0.285156 -0.125 0.335938 -0.167969 C 0.386719 -0.210938 0.414062 -0.300781 0.414062 -0.4375 L 0.414062 -1.601562 C 0.414062 -1.769531 0.398438 -1.890625 0.367188 -1.964844 C 0.335938 -2.039062 0.277344 -2.074219 0.191406 -2.074219 C 0.175781 -2.074219 0.152344 -2.070312 0.125 -2.066406 C 0.0976562 -2.0625 0.0664062 -2.058594 0.0351562 -2.050781 L 0.0351562 -2.136719 C 0.132812 -2.171875 0.234375 -2.207031 0.335938 -2.242188 C 0.441406 -2.277344 0.511719 -2.304688 0.550781 -2.320312 C 0.636719 -2.351562 0.726562 -2.390625 0.816406 -2.429688 C 0.828125 -2.429688 0.835938 -2.425781 0.839844 -2.417969 C 0.839844 -2.410156 0.84375 -2.390625 0.84375 -2.363281 L 0.84375 -1.941406 C 0.953125 -2.09375 1.058594 -2.210938 1.160156 -2.296875 C 1.261719 -2.382812 1.371094 -2.425781 1.480469 -2.425781 C 1.566406 -2.425781 1.636719 -2.402344 1.691406 -2.347656 C 1.746094 -2.296875 1.777344 -2.230469 1.777344 -2.152344 C 1.777344 -2.082031 1.753906 -2.023438 1.710938 -1.972656 C 1.667969 -1.925781 1.617188 -1.902344 1.554688 -1.902344 C 1.488281 -1.902344 1.421875 -1.933594 1.355469 -1.992188 C 1.289062 -2.050781 1.238281 -2.082031 1.199219 -2.082031 C 1.140625 -2.082031 1.066406 -2.035156 0.980469 -1.9375 C 0.890625 -1.839844 0.847656 -1.738281 0.847656 -1.636719 L 0.847656 -0.472656 C 0.847656 -0.324219 0.882812 -0.222656 0.949219 -0.167969 C 1.019531 -0.109375 1.132812 -0.0820312 1.292969 -0.0859375 L 1.292969 0 L 0.0234375 0 Z "/>
</g>
<g id="glyph-0-4">
<path d="M 1.207031 -2.417969 C 1.449219 -2.417969 1.664062 -2.332031 1.84375 -2.164062 C 2.027344 -1.996094 2.117188 -1.761719 2.117188 -1.453125 L 0.480469 -1.453125 C 0.5 -1.054688 0.589844 -0.765625 0.753906 -0.582031 C 0.917969 -0.398438 1.109375 -0.308594 1.332031 -0.308594 C 1.511719 -0.308594 1.664062 -0.355469 1.789062 -0.449219 C 1.914062 -0.542969 2.027344 -0.679688 2.132812 -0.851562 L 2.222656 -0.820312 C 2.152344 -0.601562 2.019531 -0.402344 1.824219 -0.214844 C 1.632812 -0.03125 1.394531 0.0625 1.117188 0.0625 C 0.792969 0.0625 0.542969 -0.0585938 0.367188 -0.304688 C 0.191406 -0.546875 0.101562 -0.828125 0.101562 -1.148438 C 0.101562 -1.492188 0.207031 -1.789062 0.410156 -2.039062 C 0.613281 -2.292969 0.878906 -2.417969 1.207031 -2.417969 Z M 1.058594 -2.230469 C 0.863281 -2.230469 0.714844 -2.140625 0.609375 -1.96875 C 0.554688 -1.875 0.515625 -1.757812 0.492188 -1.617188 L 1.578125 -1.617188 C 1.558594 -1.789062 1.527344 -1.917969 1.480469 -2.003906 C 1.398438 -2.152344 1.257812 -2.230469 1.058594 -2.230469 Z "/>
</g>
</g>
</defs>
<g fill="rgb(18.431373%, 16.470588%, 14.901961%)" fill-opacity="1">
<use xlink:href="#glyph-0-0" x="30" y="23.958008"/>
<use xlink:href="#glyph-0-1" x="33" y="23.958008"/>
<use xlink:href="#glyph-0-2" x="35" y="23.958008"/>
<use xlink:href="#glyph-0-3" x="38" y="23.958008"/>
<use xlink:href="#glyph-0-4" x="40" y="23.958008"/>
</g>
</svg>
